<?xml version="1.0"?>
<svg xmlns="http://www.w3.org/2000/svg" height="512px" viewBox="-2 0 489 489.8432" width="512px"><path d="m415.523438 249.042969c.597656-6.398438 1-12.800781 1-19.300781 0-104.097657-84.703126-188.898438-188.902344-188.898438-104.097656.097656-188.800782 84.800781-188.800782 189 0 104.097656 84.703126 188.898438 188.902344 188.898438 5.597656 0 11.199219-.300782 16.800782-.699219 21.273437 43.832031 65.675781 71.699219 114.398437 71.800781 70 0 127-57 127-127-.023437-48.203125-27.277344-92.257812-70.398437-113.800781zm-322.601563 92.101562c-24.445313-29.457031-38.503906-66.152343-40-104.402343h64c.699219 27 5.101563 52.402343 12.898437 75.300781-13.46875 8.117187-25.867187 17.894531-36.898437 29.101562zm36.898437-193.703125c-8.113281 24.296875-12.464843 49.691406-12.898437 75.300782h-64c1.511719-38.246094 15.570313-74.933594 40-104.398438 10.980469 11.265625 23.382813 21.046875 36.898437 29.097656zm232.101563-29.5c24.652344 29.523438 38.855469 66.371094 40.398437 104.800782h-64c-.699218-27.199219-5.097656-52.699219-13-75.699219 13.378907-8.121094 25.675782-17.898438 36.601563-29.101563zm-37.601563 104.902344h-89.699218v-48.601562c27.222656-.980469 53.90625-7.871094 78.199218-20.199219 7.191407 22.246093 11.066407 45.425781 11.5 68.800781zm-89.699218-62.699219v-103.101562c33 17.5 58.101562 46.699219 73.300781 83.800781-22.71875 11.742188-47.746094 18.332031-73.300781 19.300781zm-14 0c-25.566406-.949219-50.613282-7.46875-73.398438-19.101562 15.199219-37.199219 40.300782-66.601563 73.398438-84.101563zm0 14.097657v48.601562h-89.699219c.410156-23.269531 4.253906-46.351562 11.398437-68.5 24.382813 12.140625 51.082032 18.925781 78.300782 19.898438zm-89.699219 62.601562h89.699219v48.597656c-27.222656.960938-53.921875 7.75-78.300782 19.902344-7.03125-22.175781-10.871093-45.242188-11.398437-68.5zm103.699219 152.5c.835937 3.882812 1.867187 7.722656 3.101562 11.5-1 .597656-2 1.097656-3.101562 1.699219zm-14-89.902344v103.203125c-33.097656-17.5-58.300782-46.902343-73.398438-84.101562 22.789063-11.621094 47.835938-18.140625 73.398438-19.101563zm14 36.5v-36.5c4.5.203125 9 .5 13.5 1-6.277344 11.078125-10.832032 23.050782-13.5 35.5zm26.402344-54.296875c-1.101563 1.398438-2.300782 2.796875-3.402344 4.199219-.398438.5-.699219 1-1.097656 1.5-7.257813-1.101562-14.570313-1.800781-21.902344-2.101562v-48.398438h89.699218c0 1.199219-.097656 2.5-.097656 3.699219-.199218 0-.300781.101562-.5.101562-24.578125 6.988281-46.445312 21.289063-62.699218 41zm77.296874-44.800781h4c-1.296874.199219-2.699218.398438-4 .597656zm64 0c-.097656 2.097656-.199218 4.300781-.398437 6.398438-8.5625-3.128907-17.453125-5.273438-26.5-6.398438zm-49.796874-129.300781c-9.644532 10.035156-20.496094 18.835937-32.300782 26.199219-12.902344-30.699219-32.300781-56.5-57.101562-75.199219 34 7.101562 65.121094 24.160156 89.402344 49zm-160.300782-49c-24.902344 18.800781-44.402344 44.699219-57.300781 75.601562-11.875-7.359375-22.824219-16.121093-32.601563-26.101562 24.335938-25.128907 55.65625-42.371094 89.902344-49.5zm-89.902344 293c9.753907-10.007813 20.703126-18.773438 32.601563-26.101563 12.898437 30.902344 32.300781 56.800782 57.300781 75.601563-34.261718-7.085938-65.59375-24.335938-89.902344-49.5zm256.5 124.199219c-43.980468-.089844-83.9375-25.625-102.5-65.5-1.308593-2.769532-2.480468-5.609376-3.5-8.5-.398437-1-.699218-2.097657-1.097656-3.097657-11.9375-35.453125-5.53125-74.515625 17.097656-104.300781 1-1.300781 2-2.601562 3-3.800781 21.472657-25.898438 53.359376-40.890625 87-40.898438 62.4375 0 113.050782 50.613281 113.050782 113.046875 0 62.4375-50.613282 113.050782-113.050782 113.050782zm0 0" fill="#FFFFFF"/><path d="m14.421875 231.242188c0-3 .101563-6.097657.300781-9.199219l-14-.800781c-.199218 3.402343-.300781 6.699218-.300781 10 0 1.800781 0 3.5.101563 5.300781l14-.5c-.101563-1.601563-.101563-3.199219-.101563-4.800781zm0 0" fill="#FFFFFF"/><path d="m40.523438 328.542969-12.402344 6.5c3.199218 6.101562 6.601562 12 10.300781 17.800781l11.800781-7.5c-3.5-5.402344-6.699218-11.101562-9.699218-16.800781zm0 0" fill="#FFFFFF"/><path d="m50.222656 369.742188c4.199219 5.5 8.597656 10.800781 13.199219 15.800781l10.398437-9.398438c-4.296874-4.800781-8.5-9.800781-12.398437-14.902343zm0 0" fill="#FFFFFF"/><path d="m16.320312 255.042969-13.796874 2.101562c.898437 6.097657 2.296874 12.699219 4 20.097657l13.597656-3.199219c-1.699219-7-2.898438-13.300781-3.800782-19zm0 0" fill="#FFFFFF"/><path d="m25.421875 292.84375-13.300781 4.300781c2.101562 6.5 4.5 13 7.199218 19.296875l12.902344-5.5c-2.601562-5.898437-4.800781-12-6.800781-18.097656zm0 0" fill="#FFFFFF"/><path d="m218.320312 445.34375c-22.910156-1.195312-45.476562-6.128906-66.796874-14.601562-9.070313-3.617188-17.859376-7.894532-26.300782-12.800782-3-1.699218-6-3.597656-8.902344-5.5-1.5-.898437-2.898437-1.898437-4.296874-2.898437-6.300782-4.320313-12.375-8.960938-18.203126-13.898438l-9.097656 10.597657c6.175782 5.304687 12.652344 10.246093 19.398438 14.800781 1.5 1 3.101562 2.101562 4.601562 3.101562 3.097656 2 6.300782 4 9.597656 5.796875 9.042969 5.207032 18.433594 9.785156 28.101563 13.703125 22.722656 9.050781 46.773437 14.320313 71.199219 15.597657 4.601562.300781 11.300781.5 16.800781.5h2.800781l-.199218-14c-5.800782.101562-13.601563-.097657-18.703126-.398438zm0 0" fill="#FFFFFF"/><path d="m47.121094 106.542969h32.199218v-14h-15.199218c19.089844-21.609375 41.921875-39.597657 67.402344-53.101563 35.097656-18.597656 73.5-27.296875 111-25.097656 72.796874 4.097656 119.898437 41 146.597656 71.199219 33.902344 38.398437 54.601562 88.601562 56.800781 137.699219.300781 6.300781.199219 12.699218-.101563 18.800781l14 .800781c.386719-6.761719.417969-13.535156.101563-20.300781-2.300781-52.199219-24.300781-105.601563-60.300781-146.300781-18.882813-21.53125-41.6875-39.28125-67.199219-52.300782-27.699219-13.976562-58.015625-22.015625-89-23.597656-40.101563-2.300781-81 7-118.398437 26.699219-26.730469 14.25-50.730469 33.105469-70.902344 55.699219v-15.699219h-14v32.5c-.011719 1.859375.722656 3.648437 2.039062 4.960937 1.3125 1.316406 3.101563 2.050782 4.960938 2.039063zm0 0" fill="#FFFFFF"/><path d="m384.121094 335.242188c-11.9375.027343-22.402344 7.996093-25.597656 19.5h-70.402344v14h70.402344c3.171874 11.519531 13.648437 19.5 25.597656 19.5 11.949218 0 22.425781-7.980469 25.601562-19.5h19.800782v-14h-19.800782c-3.199218-11.503907-13.660156-19.472657-25.601562-19.5zm0 39.101562c-6.902344 0-12.5-5.597656-12.5-12.5s5.597656-12.5 12.5-12.5 12.5 5.597656 12.5 12.5-5.597656 12.5-12.5 12.5zm0 0" fill="#FFFFFF"/><path d="m333.523438 386.144531c-11.941407.027344-22.402344 7.996094-25.601563 19.5h-19.800781v14h19.800781c3.171875 11.519531 13.652344 19.5 25.601563 19.5 11.945312 0 22.425781-7.980469 25.597656-19.5h70.402344v-14h-70.402344c-3.199219-11.503906-13.660156-19.472656-25.597656-19.5zm0 39c-6.90625 0-12.5-5.597656-12.5-12.5 0-6.90625 5.59375-12.5 12.5-12.5 6.902343 0 12.5 5.59375 12.5 12.5 0 6.902344-5.597657 12.5-12.5 12.5zm0 0" fill="#FFFFFF"/><path d="m333.523438 286.242188c-11.941407.027343-22.402344 7.996093-25.601563 19.5h-19.800781v14h19.800781c3.171875 11.519531 13.652344 19.5 25.601563 19.5 11.945312 0 22.425781-7.980469 25.597656-19.5h70.402344v-14h-70.402344c-3.199219-11.503907-13.660156-19.472657-25.597656-19.5zm0 39.101562c-6.90625 0-12.5-5.597656-12.5-12.5s5.59375-12.5 12.5-12.5c6.902343 0 12.5 5.597656 12.5 12.5s-5.597657 12.5-12.5 12.5zm0 0" fill="#FFFFFF"/></svg>
